<?xml version="1.0" standalone="no" ?>
<svg xmlns="http://www.w3.org/2000/svg" xmlns:xlink="http://www.w3.org/1999/xlink" style="isolation:isolate" viewBox="0 0 345 80" width="345" height="80">
  <defs>
    <clipPath id="_clipPath_xeAHNAWQVKmJ3otuY3BvkX9uUXKH8LsX">
      <rect width="345" height="80"/>
    </clipPath>
  </defs>
  <g clip-path="url(#_clipPath_xeAHNAWQVKmJ3otuY3BvkX9uUXKH8LsX)">
    <g>
      <g>
        <g>
          <g>
            <g>
              <g>
                <path d=" M 0 10 L 197 10 L 197 60 L 0 60 L 0 10 Z " fill-rule="evenodd" fill="none"/>
                <path d=" M 125.602 29.203 C 126.183 28.623 126.862 28.164 127.638 27.828 C 128.412 27.493 129.242 27.325 130.125 27.325 C 130.926 27.325 131.664 27.459 132.343 27.728 C 133.021 27.997 133.669 28.394 134.286 28.919 C 134.65 29.212 135.061 29.358 135.522 29.358 C 136.067 29.358 136.518 29.175 136.875 28.809 C 137.232 28.443 137.411 27.984 137.411 27.434 C 137.411 26.86 137.193 26.378 136.757 25.986 C 134.891 24.326 132.681 23.495 130.125 23.495 C 127.316 23.495 124.918 24.497 122.932 26.5 C 120.945 28.503 119.953 30.922 119.953 33.756 C 119.953 36.591 120.945 39.009 122.932 41.012 C 124.918 43.015 127.316 44.017 130.125 44.017 C 132.669 44.017 134.88 43.186 136.757 41.525 C 137.156 41.122 137.357 40.651 137.357 40.114 C 137.357 39.564 137.177 39.109 136.82 38.749 C 136.463 38.389 136.012 38.209 135.467 38.209 C 135.007 38.221 134.607 38.355 134.268 38.611 C 133.662 39.137 133.021 39.531 132.343 39.794 C 131.664 40.056 130.926 40.188 130.125 40.188 C 129.242 40.188 128.412 40.02 127.638 39.684 C 126.862 39.348 126.183 38.89 125.602 38.309 C 125.021 37.729 124.564 37.048 124.231 36.266 C 123.897 35.484 123.731 34.648 123.731 33.756 C 123.731 32.864 123.897 32.028 124.231 31.245 C 124.564 30.464 125.021 29.782 125.602 29.203 Z  M 156.986 24.668 C 156.883 24.435 156.747 24.231 156.577 24.054 C 156.408 23.876 156.208 23.739 155.978 23.642 C 155.747 23.544 155.499 23.495 155.233 23.495 C 154.858 23.495 154.518 23.593 154.216 23.788 L 143.352 30.916 L 143.352 16.624 C 143.352 16.086 143.167 15.631 142.798 15.259 C 142.429 14.886 141.984 14.7 141.462 14.7 C 140.93 14.7 140.479 14.886 140.109 15.259 C 139.739 15.631 139.555 16.086 139.555 16.624 L 139.555 42.093 C 139.555 42.618 139.739 43.07 140.109 43.449 C 140.479 43.828 140.93 44.017 141.462 44.017 C 141.984 44.017 142.429 43.828 142.798 43.449 C 143.167 43.07 143.352 42.618 143.352 42.093 L 143.352 35.478 L 145.569 34.012 L 153.962 43.522 C 154.301 43.853 154.725 44.017 155.233 44.017 C 155.499 44.017 155.747 43.968 155.978 43.87 C 156.208 43.772 156.408 43.635 156.577 43.458 C 156.747 43.281 156.883 43.076 156.986 42.844 C 157.089 42.612 157.141 42.368 157.141 42.111 C 157.141 41.61 156.965 41.165 156.614 40.774 L 148.802 31.905 L 156.414 26.922 C 156.899 26.592 157.141 26.085 157.141 25.401 C 157.141 25.144 157.089 24.9 156.986 24.668 Z  M 113.53 36.239 C 113.197 37.015 112.742 37.695 112.167 38.282 C 111.592 38.868 110.917 39.332 110.142 39.674 C 109.366 40.016 108.537 40.188 107.653 40.188 C 106.757 40.188 105.921 40.016 105.146 39.674 C 104.371 39.332 103.698 38.872 103.13 38.291 C 102.561 37.711 102.11 37.03 101.776 36.248 C 101.443 35.466 101.276 34.636 101.276 33.756 C 101.276 32.876 101.443 32.046 101.776 31.264 C 102.11 30.482 102.561 29.801 103.13 29.221 C 103.698 28.641 104.371 28.18 105.146 27.837 C 105.921 27.496 106.757 27.325 107.653 27.325 C 108.537 27.325 109.366 27.496 110.142 27.837 C 110.917 28.18 111.592 28.644 112.167 29.23 C 112.742 29.816 113.197 30.497 113.53 31.273 C 113.863 32.049 114.029 32.876 114.029 33.756 C 114.029 34.636 113.863 35.464 113.53 36.239 Z  M 114.847 26.5 C 112.836 24.497 110.439 23.495 107.653 23.495 C 104.843 23.495 102.446 24.497 100.459 26.5 C 98.473 28.503 97.48 30.922 97.48 33.756 C 97.48 36.591 98.473 39.009 100.459 41.012 C 102.446 43.015 104.843 44.017 107.653 44.017 C 110.439 44.017 112.836 43.015 114.847 41.012 C 116.833 39.033 117.827 36.615 117.827 33.756 C 117.814 32.339 117.563 31.026 117.073 29.816 C 116.582 28.607 115.84 27.501 114.847 26.5 Z  M 196.491 24.778 C 196.152 24.448 195.725 24.188 195.21 23.999 C 194.696 23.81 194.132 23.678 193.521 23.605 C 192.909 23.531 192.337 23.495 191.804 23.495 C 190.593 23.495 189.454 23.691 188.389 24.081 C 187.323 24.472 186.336 25.034 185.427 25.767 L 185.427 25.401 C 185.427 24.876 185.243 24.426 184.874 24.054 C 184.504 23.681 184.059 23.495 183.538 23.495 C 183.005 23.495 182.554 23.681 182.185 24.054 C 181.815 24.426 181.631 24.876 181.631 25.401 L 181.631 42.111 C 181.631 42.636 181.815 43.086 182.185 43.458 C 182.554 43.83 183.005 44.017 183.538 44.017 C 184.059 44.017 184.504 43.83 184.874 43.458 C 185.243 43.086 185.427 42.636 185.427 42.111 L 185.427 33.756 C 185.427 32.864 185.594 32.028 185.928 31.245 C 186.26 30.464 186.715 29.782 187.29 29.203 C 187.865 28.623 188.54 28.164 189.315 27.828 C 190.091 27.493 190.92 27.325 191.804 27.325 C 192.7 27.325 193.53 27.477 194.293 27.782 C 194.595 27.918 194.862 27.984 195.092 27.984 C 195.359 27.984 195.607 27.935 195.837 27.837 C 196.067 27.74 196.267 27.603 196.437 27.425 C 196.606 27.248 196.742 27.044 196.845 26.811 C 196.948 26.579 197 26.329 197 26.061 C 197 25.535 196.83 25.107 196.491 24.778 Z  M 163.245 31.851 C 163.439 31.178 163.736 30.565 164.136 30.009 C 164.536 29.453 165.008 28.977 165.552 28.58 C 166.097 28.182 166.697 27.874 167.351 27.654 C 168.005 27.434 168.677 27.325 169.368 27.325 C 170.058 27.325 170.727 27.434 171.375 27.654 C 172.023 27.874 172.616 28.182 173.155 28.58 C 173.695 28.977 174.167 29.453 174.572 30.009 C 174.978 30.565 175.283 31.178 175.49 31.851 L 163.245 31.851 L 163.245 31.851 Z  M 176.562 26.5 C 174.551 24.497 172.153 23.495 169.368 23.495 C 166.558 23.495 164.16 24.497 162.173 26.5 C 160.187 28.503 159.194 30.922 159.194 33.756 C 159.194 36.591 160.187 39.009 162.173 41.012 C 164.16 43.015 166.558 44.017 169.368 44.017 C 171.922 44.017 174.14 43.186 176.017 41.525 C 176.38 41.147 176.562 40.689 176.562 40.151 C 176.562 39.601 176.382 39.146 176.025 38.786 C 175.669 38.425 175.218 38.245 174.673 38.245 C 174.2 38.257 173.782 38.416 173.419 38.722 C 172.85 39.211 172.232 39.577 171.565 39.821 C 170.9 40.065 170.167 40.188 169.368 40.188 C 168.665 40.188 167.99 40.078 167.342 39.858 C 166.694 39.638 166.101 39.329 165.562 38.932 C 165.023 38.536 164.553 38.059 164.153 37.503 C 163.754 36.947 163.451 36.334 163.245 35.662 L 177.633 35.662 C 178.166 35.662 178.617 35.482 178.987 35.121 C 179.357 34.761 179.541 34.306 179.541 33.756 C 179.541 32.339 179.292 31.022 178.797 29.807 C 178.299 28.592 177.555 27.49 176.562 26.5 Z  M 91.021 36.239 C 90.687 37.015 90.234 37.695 89.658 38.282 C 89.083 38.868 88.408 39.332 87.632 39.674 C 86.858 40.016 86.028 40.188 85.144 40.188 C 84.247 40.188 83.412 40.016 82.637 39.674 C 81.861 39.332 81.19 38.872 80.62 38.291 C 80.051 37.711 79.6 37.03 79.267 36.248 C 78.934 35.466 78.768 34.636 78.768 33.756 C 78.768 32.876 78.934 32.046 79.267 31.264 C 79.6 30.482 80.051 29.801 80.62 29.221 C 81.19 28.641 81.861 28.18 82.637 27.837 C 83.412 27.496 84.247 27.325 85.144 27.325 C 86.028 27.325 86.858 27.496 87.632 27.837 C 88.408 28.18 89.083 28.644 89.658 29.23 C 90.234 29.816 90.687 30.497 91.021 31.273 C 91.354 32.049 91.52 32.876 91.52 33.756 C 91.52 34.636 91.354 35.464 91.021 36.239 Z  M 93.409 14.7 C 92.865 14.7 92.414 14.88 92.056 15.241 C 91.699 15.601 91.52 16.056 91.52 16.605 L 91.52 25.749 C 89.68 24.246 87.554 23.495 85.144 23.495 C 82.333 23.495 79.936 24.497 77.95 26.5 C 75.963 28.503 74.971 30.922 74.971 33.756 C 74.971 36.591 75.963 39.009 77.95 41.012 C 79.936 43.015 82.333 44.017 85.144 44.017 C 87.929 44.017 90.328 43.015 92.338 41.012 C 94.324 39.033 95.317 36.615 95.317 33.756 L 95.317 16.605 C 95.317 16.056 95.133 15.601 94.763 15.241 C 94.393 14.88 93.942 14.7 93.409 14.7 Z " fill-rule="evenodd" fill="rgb(255,255,255)"/>
                <g>
                  <path d=" M 70.985 19.197 C 70.791 19.042 68.974 17.688 65.147 17.688 C 64.189 17.688 63.179 17.774 62.13 17.945 C 61.39 12.925 57.198 10.48 57.003 10.369 L 55.974 9.783 L 55.296 10.748 C 55.246 10.819 54.055 12.533 53.47 14.972 C 52.784 17.836 53.2 20.525 54.673 22.827 C 52.895 23.805 50.056 24.06 49.466 24.068 L 2.244 24.068 C 1.012 24.068 0.005 25.057 0 26.274 C -0.018 30.566 0.698 34.715 2.07 38.269 C 3.698 42.486 6.119 45.589 9.265 47.495 C 12.794 49.631 18.539 50.856 25.027 50.856 C 28.062 50.856 31.088 50.585 33.777 50.072 C 38.013 49.266 41.859 47.885 45.207 45.971 C 48.128 44.302 50.75 42.179 53.003 39.663 C 56.744 35.48 58.973 30.808 60.631 26.673 C 60.854 26.682 61.074 26.686 61.291 26.686 C 65.387 26.686 67.906 25.068 69.298 23.71 C 70.806 22.237 71.343 20.769 71.399 20.607 L 71.692 19.758 L 70.985 19.197 L 70.985 19.197 Z " fill-rule="evenodd" fill="rgb(255,255,255)"/>
                  <path d=" M 6.62 22.702 L 12.948 22.702 C 13.253 22.702 13.502 22.457 13.502 22.154 L 13.502 16.582 C 13.502 16.279 13.253 16.035 12.948 16.035 L 6.62 16.035 C 6.314 16.035 6.066 16.279 6.066 16.582 L 6.066 22.154 C 6.066 22.457 6.314 22.702 6.62 22.702 Z " fill-rule="evenodd" fill="rgb(255,255,255)"/>
                  <path d=" M 15.342 22.702 L 21.669 22.702 C 21.976 22.702 22.223 22.457 22.223 22.154 L 22.223 16.582 C 22.223 16.279 21.976 16.035 21.669 16.035 L 15.342 16.035 C 15.036 16.035 14.788 16.279 14.788 16.582 L 14.788 22.154 C 14.788 22.457 15.036 22.702 15.342 22.702 Z " fill-rule="evenodd" fill="rgb(255,255,255)"/>
                  <path d=" M 24.196 22.702 L 30.523 22.702 C 30.829 22.702 31.077 22.457 31.077 22.154 L 31.077 16.582 C 31.077 16.279 30.829 16.035 30.523 16.035 L 24.196 16.035 C 23.89 16.035 23.642 16.279 23.642 16.582 L 23.642 22.154 C 23.642 22.457 23.89 22.702 24.196 22.702 Z " fill-rule="evenodd" fill="rgb(255,255,255)"/>
                  <path d=" M 32.946 22.702 L 39.273 22.702 C 39.58 22.702 39.827 22.457 39.827 22.154 L 39.827 16.582 C 39.827 16.279 39.58 16.035 39.273 16.035 L 32.946 16.035 C 32.641 16.035 32.391 16.279 32.391 16.582 L 32.391 22.154 C 32.391 22.457 32.641 22.702 32.946 22.702 Z " fill-rule="evenodd" fill="rgb(255,255,255)"/>
                  <path d=" M 15.342 14.685 L 21.669 14.685 C 21.976 14.685 22.223 14.44 22.223 14.138 L 22.223 8.565 C 22.223 8.263 21.976 8.017 21.669 8.017 L 15.342 8.017 C 15.036 8.017 14.788 8.263 14.788 8.565 L 14.788 14.138 C 14.788 14.44 15.036 14.685 15.342 14.685 Z " fill-rule="evenodd" fill="rgb(255,255,255)"/>
                  <path d=" M 24.196 14.685 L 30.523 14.685 C 30.829 14.685 31.077 14.44 31.077 14.138 L 31.077 8.565 C 31.077 8.263 30.829 8.017 30.523 8.017 L 24.196 8.017 C 23.89 8.017 23.642 8.263 23.642 8.565 L 23.642 14.138 C 23.642 14.44 23.89 14.685 24.196 14.685 Z " fill-rule="evenodd" fill="rgb(255,255,255)"/>
                  <path d=" M 32.946 14.685 L 39.273 14.685 C 39.58 14.685 39.827 14.44 39.827 14.138 L 39.827 8.565 C 39.827 8.263 39.58 8.017 39.273 8.017 L 32.946 8.017 C 32.641 8.017 32.391 8.263 32.391 8.565 L 32.391 14.138 C 32.391 14.44 32.641 14.685 32.946 14.685 Z " fill-rule="evenodd" fill="rgb(255,255,255)"/>
                  <path d=" M 32.946 6.667 L 39.273 6.667 C 39.58 6.667 39.828 6.422 39.828 6.12 L 39.828 0.548 C 39.828 0.245 39.58 0 39.273 0 L 32.946 0 C 32.641 0 32.392 0.245 32.392 0.548 L 32.392 6.12 C 32.392 6.422 32.641 6.667 32.946 6.667 Z " fill-rule="evenodd" fill="rgb(255,255,255)"/>
                  <path d=" M 41.77 22.702 L 48.097 22.702 C 48.403 22.702 48.651 22.457 48.651 22.154 L 48.651 16.582 C 48.651 16.279 48.403 16.035 48.097 16.035 L 41.77 16.035 C 41.463 16.035 41.216 16.279 41.216 16.582 L 41.216 22.154 C 41.216 22.457 41.463 22.702 41.77 22.702 Z " fill-rule="evenodd" fill="rgb(255,255,255)"/>
                </g>
              </g>
            </g>
            <g opacity="0.5">
              <path d=" M 226.232 16.884 C 226.784 16.884 227.228 17.052 227.564 17.388 C 227.9 17.724 228.068 18.168 228.068 18.72 L 228.068 35.136 C 228.068 37.008 227.63 38.706 226.754 40.23 C 225.878 41.754 224.69 42.954 223.19 43.83 C 221.69 44.706 220.016 45.144 218.168 45.144 C 216.32 45.144 214.634 44.706 213.11 43.83 C 211.586 42.954 210.392 41.754 209.528 40.23 C 208.664 38.706 208.232 37.008 208.232 35.136 C 208.232 33.264 208.634 31.566 209.438 30.042 C 210.242 28.518 211.346 27.324 212.75 26.46 C 214.154 25.596 215.72 25.164 217.448 25.164 C 218.84 25.164 220.136 25.452 221.336 26.028 C 222.536 26.604 223.556 27.408 224.396 28.44 L 224.396 18.72 C 224.396 18.168 224.57 17.724 224.918 17.388 C 225.266 17.052 225.704 16.884 226.232 16.884 Z  M 218.168 41.904 C 219.368 41.904 220.454 41.61 221.426 41.022 C 222.398 40.434 223.16 39.624 223.712 38.592 C 224.264 37.56 224.54 36.408 224.54 35.136 C 224.54 33.864 224.264 32.718 223.712 31.698 C 223.16 30.678 222.398 29.874 221.426 29.286 C 220.454 28.698 219.368 28.404 218.168 28.404 C 216.968 28.404 215.882 28.698 214.91 29.286 C 213.938 29.874 213.17 30.678 212.606 31.698 C 212.042 32.718 211.76 33.864 211.76 35.136 C 211.76 36.408 212.042 37.56 212.606 38.592 C 213.17 39.624 213.938 40.434 214.91 41.022 C 215.882 41.61 216.968 41.904 218.168 41.904 Z  M 250.455 34.848 C 250.455 35.304 250.299 35.682 249.987 35.982 C 249.675 36.282 249.279 36.432 248.799 36.432 L 235.119 36.432 C 235.383 38.112 236.145 39.468 237.405 40.5 C 238.665 41.532 240.207 42.048 242.031 42.048 C 242.751 42.048 243.501 41.916 244.281 41.652 C 245.061 41.388 245.703 41.064 246.207 40.68 C 246.543 40.416 246.939 40.284 247.395 40.284 C 247.851 40.284 248.211 40.404 248.475 40.644 C 248.907 41.004 249.123 41.412 249.123 41.868 C 249.123 42.3 248.931 42.66 248.547 42.948 C 247.731 43.596 246.717 44.124 245.505 44.532 C 244.293 44.94 243.135 45.144 242.031 45.144 C 240.063 45.144 238.299 44.718 236.739 43.866 C 235.179 43.014 233.961 41.832 233.085 40.32 C 232.209 38.808 231.771 37.092 231.771 35.172 C 231.771 33.252 232.185 31.53 233.013 30.006 C 233.841 28.482 234.993 27.294 236.469 26.442 C 237.945 25.59 239.619 25.164 241.491 25.164 C 243.339 25.164 244.935 25.572 246.279 26.388 C 247.623 27.204 248.655 28.344 249.375 29.808 C 250.095 31.272 250.455 32.952 250.455 34.848 Z  M 241.491 28.26 C 239.739 28.26 238.317 28.74 237.225 29.7 C 236.133 30.66 235.443 31.944 235.155 33.552 L 247.143 33.552 C 246.927 31.944 246.327 30.66 245.343 29.7 C 244.359 28.74 243.075 28.26 241.491 28.26 Z  M 260.278 25.164 C 261.838 25.164 263.236 25.416 264.472 25.92 C 265.708 26.424 266.686 27.12 267.406 28.008 C 267.718 28.392 267.874 28.776 267.874 29.16 C 267.874 29.568 267.67 29.94 267.262 30.276 C 266.998 30.468 266.662 30.564 266.254 30.564 C 265.63 30.564 265.066 30.336 264.562 29.88 C 263.962 29.328 263.326 28.938 262.654 28.71 C 261.982 28.482 261.166 28.368 260.206 28.368 C 259.102 28.368 258.196 28.554 257.488 28.926 C 256.78 29.298 256.426 29.82 256.426 30.492 C 256.426 30.972 256.546 31.374 256.786 31.698 C 257.026 32.022 257.482 32.322 258.154 32.598 C 258.826 32.874 259.798 33.144 261.07 33.408 C 263.686 33.936 265.54 34.668 266.632 35.604 C 267.724 36.54 268.27 37.752 268.27 39.24 C 268.27 40.344 267.97 41.346 267.37 42.246 C 266.77 43.146 265.888 43.854 264.724 44.37 C 263.56 44.886 262.162 45.144 260.53 45.144 C 258.898 45.144 257.362 44.892 255.922 44.388 C 254.482 43.884 253.354 43.224 252.538 42.408 C 252.226 42.096 252.07 41.724 252.07 41.292 C 252.07 40.716 252.31 40.248 252.79 39.888 C 253.246 39.552 253.666 39.384 254.05 39.384 C 254.53 39.384 254.986 39.6 255.418 40.032 C 255.874 40.536 256.558 40.974 257.47 41.346 C 258.382 41.718 259.354 41.904 260.386 41.904 C 261.754 41.904 262.816 41.676 263.572 41.22 C 264.328 40.764 264.706 40.152 264.706 39.384 C 264.706 38.64 264.334 38.022 263.59 37.53 C 262.846 37.038 261.586 36.624 259.81 36.288 C 255.202 35.4 252.898 33.504 252.898 30.6 C 252.898 29.424 253.246 28.428 253.942 27.612 C 254.638 26.796 255.55 26.184 256.678 25.776 C 257.806 25.368 259.006 25.164 260.278 25.164 Z  M 286.013 42.408 C 286.277 42.696 286.409 43.056 286.409 43.488 C 286.409 44.016 286.193 44.46 285.761 44.82 C 285.401 45.108 285.017 45.252 284.609 45.252 C 284.081 45.252 283.649 45.036 283.313 44.604 L 276.473 36.144 L 274.673 37.728 L 274.673 43.236 C 274.673 43.764 274.511 44.19 274.187 44.514 C 273.863 44.838 273.437 45 272.909 45 C 272.381 45 271.955 44.838 271.631 44.514 C 271.307 44.19 271.145 43.764 271.145 43.236 L 271.145 18.648 C 271.145 18.12 271.307 17.694 271.631 17.37 C 271.955 17.046 272.381 16.884 272.909 16.884 C 273.437 16.884 273.863 17.046 274.187 17.37 C 274.511 17.694 274.673 18.12 274.673 18.648 L 274.673 33.3 L 283.421 25.488 C 283.733 25.176 284.105 25.02 284.537 25.02 C 285.041 25.02 285.449 25.212 285.761 25.596 C 286.073 25.908 286.229 26.28 286.229 26.712 C 286.229 27.216 286.037 27.624 285.653 27.936 L 279.029 33.84 L 286.013 42.408 L 286.013 42.408 Z  M 298.247 41.4 C 298.679 41.4 299.045 41.568 299.345 41.904 C 299.645 42.24 299.795 42.672 299.795 43.2 C 299.795 43.728 299.597 44.16 299.201 44.496 C 298.805 44.832 298.295 45 297.671 45 L 297.023 45 C 295.847 45 294.773 44.694 293.801 44.082 C 292.829 43.47 292.067 42.636 291.515 41.58 C 290.963 40.524 290.687 39.336 290.687 38.016 L 290.687 29.124 L 289.031 29.124 C 288.527 29.124 288.119 28.98 287.807 28.692 C 287.495 28.404 287.339 28.044 287.339 27.612 C 287.339 27.132 287.495 26.748 287.807 26.46 C 288.119 26.172 288.527 26.028 289.031 26.028 L 290.687 26.028 L 290.687 20.844 C 290.687 20.316 290.855 19.884 291.191 19.548 C 291.527 19.212 291.959 19.044 292.487 19.044 C 293.015 19.044 293.447 19.212 293.783 19.548 C 294.119 19.884 294.287 20.316 294.287 20.844 L 294.287 26.028 L 297.347 26.028 C 297.851 26.028 298.259 26.172 298.571 26.46 C 298.883 26.748 299.039 27.132 299.039 27.612 C 299.039 28.044 298.883 28.404 298.571 28.692 C 298.259 28.98 297.851 29.124 297.347 29.124 L 294.287 29.124 L 294.287 38.016 C 294.287 38.976 294.551 39.78 295.079 40.428 C 295.607 41.076 296.255 41.4 297.023 41.4 L 298.247 41.4 L 298.247 41.4 Z  M 311.454 25.164 C 313.35 25.164 315.048 25.59 316.548 26.442 C 318.048 27.294 319.224 28.476 320.076 29.988 C 320.928 31.5 321.354 33.228 321.354 35.172 C 321.354 37.092 320.934 38.808 320.094 40.32 C 319.254 41.832 318.084 43.014 316.584 43.866 C 315.084 44.718 313.374 45.144 311.454 45.144 C 309.534 45.144 307.818 44.718 306.306 43.866 C 304.794 43.014 303.618 41.832 302.778 40.32 C 301.938 38.808 301.518 37.092 301.518 35.172 C 301.518 33.228 301.938 31.5 302.778 29.988 C 303.618 28.476 304.794 27.294 306.306 26.442 C 307.818 25.59 309.534 25.164 311.454 25.164 Z  M 311.454 28.404 C 310.23 28.404 309.132 28.692 308.16 29.268 C 307.188 29.844 306.426 30.648 305.874 31.68 C 305.322 32.712 305.046 33.876 305.046 35.172 C 305.046 36.468 305.322 37.626 305.874 38.646 C 306.426 39.666 307.188 40.464 308.16 41.04 C 309.132 41.616 310.23 41.904 311.454 41.904 C 312.678 41.904 313.776 41.616 314.748 41.04 C 315.72 40.464 316.476 39.666 317.016 38.646 C 317.556 37.626 317.826 36.468 317.826 35.172 C 317.826 33.876 317.556 32.712 317.016 31.68 C 316.476 30.648 315.72 29.844 314.748 29.268 C 313.776 28.692 312.678 28.404 311.454 28.404 Z  M 334.957 25.164 C 336.805 25.164 338.491 25.602 340.015 26.478 C 341.539 27.354 342.733 28.554 343.597 30.078 C 344.461 31.602 344.893 33.3 344.893 35.172 C 344.893 37.044 344.491 38.742 343.687 40.266 C 342.883 41.79 341.779 42.984 340.375 43.848 C 338.971 44.712 337.405 45.144 335.677 45.144 C 334.285 45.144 332.989 44.856 331.789 44.28 C 330.589 43.704 329.569 42.9 328.729 41.868 L 328.729 51.588 C 328.729 52.14 328.561 52.584 328.225 52.92 C 327.889 53.256 327.445 53.424 326.893 53.424 C 326.365 53.424 325.927 53.256 325.579 52.92 C 325.231 52.584 325.057 52.14 325.057 51.588 L 325.057 35.172 C 325.057 33.3 325.495 31.602 326.371 30.078 C 327.247 28.554 328.435 27.354 329.935 26.478 C 331.435 25.602 333.109 25.164 334.957 25.164 Z  M 334.957 41.904 C 336.157 41.904 337.243 41.61 338.215 41.022 C 339.187 40.434 339.955 39.63 340.519 38.61 C 341.083 37.59 341.365 36.444 341.365 35.172 C 341.365 33.9 341.083 32.748 340.519 31.716 C 339.955 30.684 339.187 29.874 338.215 29.286 C 337.243 28.698 336.157 28.404 334.957 28.404 C 333.757 28.404 332.671 28.698 331.699 29.286 C 330.727 29.874 329.965 30.684 329.413 31.716 C 328.861 32.748 328.585 33.9 328.585 35.172 C 328.585 36.444 328.861 37.59 329.413 38.61 C 329.965 39.63 330.727 40.434 331.699 41.022 C 332.671 41.61 333.757 41.904 334.957 41.904 Z " fill-rule="evenodd" fill="rgb(255,255,255)"/>
            </g>
            <g opacity="0.5">
              <path d=" M 215.327 64.531 C 216.822 64.531 218.063 65.101 219.051 66.241 C 219.178 66.38 219.241 66.545 219.241 66.735 C 219.241 67.014 219.102 67.248 218.823 67.438 C 218.696 67.527 218.551 67.571 218.386 67.571 C 218.095 67.571 217.848 67.457 217.645 67.229 C 217.328 66.887 216.983 66.637 216.61 66.479 C 216.236 66.32 215.808 66.241 215.327 66.241 C 214.352 66.241 213.56 66.567 212.952 67.22 C 212.344 67.872 212.04 68.736 212.04 69.813 C 212.04 70.497 212.182 71.108 212.468 71.647 C 212.753 72.185 213.151 72.606 213.665 72.91 C 214.178 73.214 214.763 73.366 215.422 73.366 C 216.283 73.366 216.98 73.144 217.512 72.701 C 217.753 72.524 217.987 72.435 218.215 72.435 C 218.392 72.435 218.557 72.492 218.709 72.606 C 218.95 72.809 219.07 73.037 219.07 73.29 C 219.07 73.48 218.994 73.651 218.842 73.803 C 217.93 74.652 216.79 75.076 215.422 75.076 C 214.421 75.076 213.522 74.848 212.724 74.392 C 211.926 73.936 211.302 73.306 210.853 72.502 C 210.403 71.697 210.178 70.801 210.178 69.813 C 210.178 68.8 210.396 67.891 210.834 67.087 C 211.271 66.282 211.882 65.655 212.667 65.206 C 213.452 64.756 214.339 64.531 215.327 64.531 Z  M 226.071 64.531 C 227.072 64.531 227.968 64.756 228.76 65.206 C 229.551 65.655 230.172 66.279 230.622 67.077 C 231.071 67.875 231.296 68.787 231.296 69.813 C 231.296 70.826 231.074 71.732 230.631 72.53 C 230.188 73.328 229.57 73.952 228.779 74.402 C 227.987 74.851 227.084 75.076 226.071 75.076 C 225.058 75.076 224.152 74.851 223.354 74.402 C 222.556 73.952 221.935 73.328 221.492 72.53 C 221.049 71.732 220.827 70.826 220.827 69.813 C 220.827 68.787 221.049 67.875 221.492 67.077 C 221.935 66.279 222.556 65.655 223.354 65.206 C 224.152 64.756 225.058 64.531 226.071 64.531 Z  M 226.071 66.241 C 225.425 66.241 224.846 66.393 224.333 66.697 C 223.819 67.001 223.417 67.425 223.126 67.97 C 222.835 68.515 222.689 69.129 222.689 69.813 C 222.689 70.497 222.835 71.108 223.126 71.647 C 223.417 72.185 223.819 72.606 224.333 72.91 C 224.846 73.214 225.425 73.366 226.071 73.366 C 226.717 73.366 227.296 73.214 227.81 72.91 C 228.323 72.606 228.721 72.185 229.007 71.647 C 229.292 71.108 229.434 70.497 229.434 69.813 C 229.434 69.129 229.292 68.515 229.007 67.97 C 228.721 67.425 228.323 67.001 227.81 66.697 C 227.296 66.393 226.717 66.241 226.071 66.241 Z  M 244.339 64.512 C 245.441 64.512 246.331 64.873 247.009 65.595 C 247.686 66.317 248.025 67.324 248.025 68.616 L 248.025 74.05 C 248.025 74.329 247.936 74.56 247.759 74.744 C 247.582 74.927 247.347 75.019 247.056 75.019 C 246.777 75.019 246.546 74.927 246.363 74.744 C 246.179 74.56 246.087 74.329 246.087 74.05 L 246.087 68.616 C 246.087 67.843 245.894 67.258 245.508 66.859 C 245.121 66.459 244.605 66.26 243.959 66.26 C 243.3 66.26 242.759 66.488 242.335 66.944 C 241.91 67.4 241.698 67.983 241.698 68.692 L 241.698 74.05 C 241.698 74.329 241.609 74.56 241.432 74.744 C 241.255 74.927 241.02 75.019 240.729 75.019 C 240.45 75.019 240.219 74.927 240.036 74.744 C 239.852 74.56 239.76 74.329 239.76 74.05 L 239.76 68.616 C 239.76 67.843 239.567 67.258 239.181 66.859 C 238.794 66.459 238.278 66.26 237.632 66.26 C 236.961 66.26 236.413 66.488 235.989 66.944 C 235.564 67.4 235.352 67.983 235.352 68.692 L 235.352 74.05 C 235.352 74.329 235.263 74.56 235.086 74.744 C 234.909 74.927 234.674 75.019 234.383 75.019 C 234.104 75.019 233.873 74.927 233.69 74.744 C 233.506 74.56 233.414 74.329 233.414 74.05 L 233.414 65.595 C 233.414 65.304 233.506 65.069 233.69 64.892 C 233.873 64.715 234.104 64.626 234.383 64.626 C 234.662 64.626 234.89 64.711 235.067 64.882 C 235.244 65.054 235.339 65.278 235.352 65.557 C 235.681 65.228 236.074 64.971 236.53 64.787 C 236.986 64.604 237.48 64.512 238.012 64.512 C 238.658 64.512 239.237 64.642 239.751 64.902 C 240.264 65.161 240.685 65.532 241.014 66.013 C 241.394 65.544 241.869 65.177 242.439 64.911 C 243.009 64.645 243.642 64.512 244.339 64.512 Z  M 261.391 64.512 C 262.493 64.512 263.383 64.873 264.061 65.595 C 264.738 66.317 265.077 67.324 265.077 68.616 L 265.077 74.05 C 265.077 74.329 264.988 74.56 264.811 74.744 C 264.634 74.927 264.399 75.019 264.108 75.019 C 263.829 75.019 263.598 74.927 263.415 74.744 C 263.231 74.56 263.139 74.329 263.139 74.05 L 263.139 68.616 C 263.139 67.843 262.946 67.258 262.56 66.859 C 262.173 66.459 261.657 66.26 261.011 66.26 C 260.352 66.26 259.811 66.488 259.387 66.944 C 258.962 67.4 258.75 67.983 258.75 68.692 L 258.75 74.05 C 258.75 74.329 258.661 74.56 258.484 74.744 C 258.307 74.927 258.072 75.019 257.781 75.019 C 257.502 75.019 257.271 74.927 257.087 74.744 C 256.904 74.56 256.812 74.329 256.812 74.05 L 256.812 68.616 C 256.812 67.843 256.619 67.258 256.233 66.859 C 255.846 66.459 255.33 66.26 254.684 66.26 C 254.013 66.26 253.465 66.488 253.041 66.944 C 252.616 67.4 252.404 67.983 252.404 68.692 L 252.404 74.05 C 252.404 74.329 252.315 74.56 252.138 74.744 C 251.961 74.927 251.726 75.019 251.435 75.019 C 251.156 75.019 250.925 74.927 250.742 74.744 C 250.558 74.56 250.466 74.329 250.466 74.05 L 250.466 65.595 C 250.466 65.304 250.558 65.069 250.742 64.892 C 250.925 64.715 251.156 64.626 251.435 64.626 C 251.714 64.626 251.942 64.711 252.119 64.882 C 252.296 65.054 252.391 65.278 252.404 65.557 C 252.733 65.228 253.126 64.971 253.582 64.787 C 254.038 64.604 254.532 64.512 255.064 64.512 C 255.71 64.512 256.289 64.642 256.803 64.902 C 257.316 65.161 257.737 65.532 258.066 66.013 C 258.446 65.544 258.921 65.177 259.491 64.911 C 260.061 64.645 260.694 64.512 261.391 64.512 Z  M 276.087 64.588 C 276.378 64.588 276.613 64.677 276.79 64.854 C 276.967 65.031 277.056 65.266 277.056 65.557 L 277.056 74.031 C 277.056 74.31 276.967 74.541 276.79 74.725 C 276.613 74.908 276.378 75 276.087 75 C 275.808 75 275.577 74.908 275.394 74.725 C 275.21 74.541 275.118 74.31 275.118 74.031 L 275.118 73.822 C 274.713 74.227 274.231 74.541 273.674 74.763 C 273.117 74.984 272.521 75.095 271.888 75.095 C 271.014 75.095 270.229 74.905 269.532 74.525 C 268.835 74.145 268.291 73.591 267.898 72.863 C 267.505 72.134 267.309 71.257 267.309 70.231 L 267.309 65.557 C 267.309 65.278 267.401 65.047 267.585 64.864 C 267.768 64.68 267.999 64.588 268.278 64.588 C 268.557 64.588 268.788 64.68 268.972 64.864 C 269.155 65.047 269.247 65.278 269.247 65.557 L 269.247 70.231 C 269.247 71.257 269.522 72.033 270.074 72.559 C 270.625 73.084 271.356 73.347 272.268 73.347 C 272.8 73.347 273.284 73.239 273.722 73.024 C 274.159 72.809 274.5 72.517 274.748 72.15 C 274.995 71.783 275.118 71.371 275.118 70.915 L 275.118 65.557 C 275.118 65.266 275.21 65.031 275.394 64.854 C 275.577 64.677 275.808 64.588 276.087 64.588 Z  M 284.874 64.512 C 285.748 64.512 286.533 64.702 287.23 65.082 C 287.927 65.462 288.471 66.016 288.864 66.745 C 289.257 67.473 289.453 68.35 289.453 69.376 L 289.453 74.05 C 289.453 74.329 289.361 74.56 289.178 74.744 C 288.994 74.927 288.763 75.019 288.484 75.019 C 288.205 75.019 287.974 74.927 287.791 74.744 C 287.607 74.56 287.515 74.329 287.515 74.05 L 287.515 69.376 C 287.515 68.35 287.24 67.574 286.689 67.049 C 286.137 66.523 285.406 66.26 284.494 66.26 C 283.962 66.26 283.478 66.368 283.041 66.583 C 282.603 66.798 282.262 67.09 282.015 67.457 C 281.767 67.824 281.644 68.236 281.644 68.692 L 281.644 74.05 C 281.644 74.329 281.555 74.56 281.378 74.744 C 281.201 74.927 280.966 75.019 280.675 75.019 C 280.396 75.019 280.165 74.927 279.982 74.744 C 279.798 74.56 279.706 74.329 279.706 74.05 L 279.706 65.576 C 279.706 65.285 279.798 65.05 279.982 64.873 C 280.165 64.696 280.396 64.607 280.675 64.607 C 280.966 64.607 281.201 64.696 281.378 64.873 C 281.555 65.05 281.644 65.285 281.644 65.576 L 281.644 65.785 C 282.049 65.38 282.531 65.066 283.088 64.845 C 283.645 64.623 284.241 64.512 284.874 64.512 Z  M 292.084 65.576 C 292.084 65.285 292.176 65.05 292.36 64.873 C 292.543 64.696 292.774 64.607 293.053 64.607 C 293.344 64.607 293.579 64.696 293.756 64.873 C 293.933 65.05 294.022 65.285 294.022 65.576 L 294.022 74.031 C 294.022 74.31 293.933 74.541 293.756 74.725 C 293.579 74.908 293.344 75 293.053 75 C 292.774 75 292.543 74.908 292.36 74.725 C 292.176 74.541 292.084 74.31 292.084 74.031 L 292.084 65.576 L 292.084 65.576 Z  M 293.053 60.408 C 293.395 60.408 293.689 60.531 293.937 60.779 C 294.184 61.026 294.307 61.32 294.307 61.662 C 294.307 62.004 294.184 62.298 293.937 62.546 C 293.689 62.793 293.395 62.916 293.053 62.916 C 292.711 62.916 292.417 62.793 292.17 62.546 C 291.922 62.298 291.799 62.004 291.799 61.662 C 291.799 61.32 291.922 61.026 292.17 60.779 C 292.417 60.531 292.711 60.408 293.053 60.408 Z  M 301.289 73.1 C 301.517 73.1 301.71 73.189 301.869 73.366 C 302.027 73.543 302.106 73.771 302.106 74.05 C 302.106 74.329 302.002 74.557 301.793 74.734 C 301.583 74.911 301.314 75 300.985 75 L 300.643 75 C 300.022 75 299.456 74.839 298.943 74.516 C 298.429 74.192 298.027 73.752 297.736 73.195 C 297.445 72.638 297.299 72.011 297.299 71.314 L 297.299 66.621 L 296.425 66.621 C 296.159 66.621 295.944 66.545 295.779 66.393 C 295.614 66.241 295.532 66.051 295.532 65.823 C 295.532 65.57 295.614 65.367 295.779 65.215 C 295.944 65.063 296.159 64.987 296.425 64.987 L 297.299 64.987 L 297.299 62.251 C 297.299 61.972 297.388 61.744 297.565 61.567 C 297.742 61.39 297.97 61.301 298.249 61.301 C 298.528 61.301 298.756 61.39 298.933 61.567 C 299.11 61.744 299.199 61.972 299.199 62.251 L 299.199 64.987 L 300.814 64.987 C 301.08 64.987 301.295 65.063 301.46 65.215 C 301.625 65.367 301.707 65.57 301.707 65.823 C 301.707 66.051 301.625 66.241 301.46 66.393 C 301.295 66.545 301.08 66.621 300.814 66.621 L 299.199 66.621 L 299.199 71.314 C 299.199 71.821 299.338 72.245 299.617 72.587 C 299.896 72.929 300.238 73.1 300.643 73.1 L 301.289 73.1 L 301.289 73.1 Z  M 311.653 64.702 C 312.046 64.854 312.242 65.101 312.242 65.443 C 312.242 65.57 312.204 65.722 312.128 65.899 L 306.314 78.971 C 306.162 79.364 305.915 79.56 305.573 79.56 C 305.446 79.56 305.294 79.522 305.117 79.446 C 304.737 79.281 304.547 79.034 304.547 78.705 C 304.547 78.553 304.585 78.401 304.661 78.249 L 306.561 73.974 L 302.286 65.861 C 302.223 65.747 302.191 65.614 302.191 65.462 C 302.191 65.297 302.242 65.145 302.343 65.006 C 302.444 64.867 302.577 64.759 302.742 64.683 C 302.856 64.632 302.983 64.607 303.122 64.607 C 303.477 64.607 303.743 64.784 303.92 65.139 L 307.397 72.055 L 310.456 65.158 C 310.621 64.791 310.868 64.607 311.197 64.607 C 311.362 64.607 311.514 64.639 311.653 64.702 Z " fill-rule="evenodd" fill="rgb(255,255,255)"/>
            </g>
          </g>
        </g>
      </g>
    </g>
  </g>
</svg>